<svg width="174" height="60" viewBox="0 0 174 60" fill="none" xmlns="http://www.w3.org/2000/svg">
<path d="M20.952 46.368V39.168H30.528V45.216C30.528 51.552 27.552 54.72 21.6 54.72H12.528C6.576 54.72 3.6 51.552 3.6 45.216V16.2C3.6 9.864 6.576 6.696 12.528 6.696H21.6C27.552 6.696 30.528 9.864 30.528 16.2V20.592H20.952V14.976C20.952 14.592 20.808 14.256 20.52 13.968C20.28 13.68 19.968 13.536 19.584 13.536H15.048C14.664 13.536 14.328 13.68 14.04 13.968C13.8 14.256 13.68 14.592 13.68 14.976V46.368C13.68 46.752 13.8 47.088 14.04 47.376C14.328 47.664 14.664 47.808 15.048 47.808H19.584C19.968 47.808 20.28 47.664 20.52 47.376C20.808 47.088 20.952 46.752 20.952 46.368Z" fill="white"/>
<rect x="38" y="12" width="37" height="37" rx="16.5" fill="white"/>
<path d="M54.6 37.2H54.4776C53.8735 37.2 53.2942 36.96 52.8671 36.5329C52.44 36.1058 52.2 35.5265 52.2 34.9224C52.2 34.2859 51.9471 33.6754 51.4971 33.2253C51.047 32.7753 50.4365 32.5224 49.8 32.5224C49.1635 32.5224 48.553 32.7753 48.1029 33.2253C47.6529 33.6754 47.4 34.2859 47.4 34.9224C47.4 36.7995 48.1457 38.5997 49.473 39.927C50.8003 41.2543 52.6005 42 54.4776 42H54.6V44.4C54.6 45.0365 54.8529 45.647 55.3029 46.0971C55.753 46.5471 56.3635 46.8 57 46.8C57.6365 46.8 58.247 46.5471 58.6971 46.0971C59.1471 45.647 59.4 45.0365 59.4 44.4V42C61.3096 42 63.1409 41.2414 64.4912 39.8912C65.8414 38.5409 66.6 36.7096 66.6 34.8C66.6 32.8904 65.8414 31.0591 64.4912 29.7088C63.1409 28.3586 61.3096 27.6 59.4 27.6V22.8H59.4528C60.7488 22.8 61.8 23.8512 61.8 25.1472C61.8 25.7837 62.0529 26.3942 62.5029 26.8443C62.953 27.2943 63.5635 27.5472 64.2 27.5472C64.8365 27.5472 65.447 27.2943 65.8971 26.8443C66.3471 26.3942 66.6 25.7837 66.6 25.1472C66.6 23.2516 65.847 21.4337 64.5066 20.0934C63.1663 18.753 61.3484 18 59.4528 18H59.4V15.6C59.4 14.9635 59.1471 14.353 58.6971 13.9029C58.247 13.4529 57.6365 13.2 57 13.2C56.3635 13.2 55.753 13.4529 55.3029 13.9029C54.8529 14.353 54.6 14.9635 54.6 15.6V18C52.6904 18 50.8591 18.7586 49.5088 20.1088C48.1586 21.4591 47.4 23.2904 47.4 25.2C47.4 27.1096 48.1586 28.9409 49.5088 30.2912C50.8591 31.6414 52.6904 32.4 54.6 32.4V37.2ZM59.4 37.2V32.4C60.0365 32.4 60.647 32.6529 61.0971 33.1029C61.5471 33.553 61.8 34.1635 61.8 34.8C61.8 35.4365 61.5471 36.047 61.0971 36.4971C60.647 36.9471 60.0365 37.2 59.4 37.2ZM54.6 22.8V27.6C53.9635 27.6 53.353 27.3471 52.9029 26.8971C52.4529 26.447 52.2 25.8365 52.2 25.2C52.2 24.5635 52.4529 23.953 52.9029 23.5029C53.353 23.0529 53.9635 22.8 54.6 22.8V22.8ZM57 54C43.7448 54 33 43.2552 33 30C33 16.7448 43.7448 6 57 6C70.2552 6 81 16.7448 81 30C81 43.2552 70.2552 54 57 54Z" fill="#0083B0"/>
<path d="M109.448 19.656H99.872V15.984C99.872 15.6 99.728 15.264 99.44 14.976C99.2 14.688 98.888 14.544 98.504 14.544H94.544C94.16 14.544 93.824 14.688 93.536 14.976C93.296 15.264 93.176 15.6 93.176 15.984V24.264C93.176 24.648 93.296 24.984 93.536 25.272C93.824 25.56 94.16 25.704 94.544 25.704H101.024C106.976 25.8 109.952 28.968 109.952 35.208V45.216C109.952 51.552 106.976 54.72 101.024 54.72H92.528C86.576 54.72 83.6 51.552 83.6 45.216V40.392H93.176V45.576C93.176 45.96 93.296 46.296 93.536 46.584C93.824 46.872 94.16 47.016 94.544 47.016H99.008C99.392 47.016 99.704 46.872 99.944 46.584C100.232 46.296 100.376 45.96 100.376 45.576V36.432C100.376 36.048 100.232 35.712 99.944 35.424C99.704 35.136 99.392 34.992 99.008 34.992H92.528C86.576 34.992 83.6 31.824 83.6 25.488V16.2C83.6 9.864 86.576 6.696 92.528 6.696H100.52C106.472 6.696 109.448 9.864 109.448 16.2V19.656ZM113.913 15.984V7.416H139.113V15.984H131.553V54H121.473V15.984H113.913ZM169.565 19.656H159.989V15.984C159.989 15.6 159.845 15.264 159.557 14.976C159.317 14.688 159.005 14.544 158.621 14.544H154.661C154.277 14.544 153.941 14.688 153.653 14.976C153.413 15.264 153.293 15.6 153.293 15.984V24.264C153.293 24.648 153.413 24.984 153.653 25.272C153.941 25.56 154.277 25.704 154.661 25.704H161.141C167.093 25.8 170.069 28.968 170.069 35.208V45.216C170.069 51.552 167.093 54.72 161.141 54.72H152.645C146.693 54.72 143.717 51.552 143.717 45.216V40.392H153.293V45.576C153.293 45.96 153.413 46.296 153.653 46.584C153.941 46.872 154.277 47.016 154.661 47.016H159.125C159.509 47.016 159.821 46.872 160.061 46.584C160.349 46.296 160.493 45.96 160.493 45.576V36.432C160.493 36.048 160.349 35.712 160.061 35.424C159.821 35.136 159.509 34.992 159.125 34.992H152.645C146.693 34.992 143.717 31.824 143.717 25.488V16.2C143.717 9.864 146.693 6.696 152.645 6.696H160.637C166.589 6.696 169.565 9.864 169.565 16.2V19.656Z" fill="white"/>
</svg>
