<svg width="281" height="60" viewBox="0 0 281 60" fill="none" xmlns="http://www.w3.org/2000/svg">
<path d="M30.2082 12.4038C37.3161 12.4038 42.9594 16.7519 45.0878 23.2352H59.4206C56.8235 9.39501 45.3221 0 30.3254 0C13.2979 0 0 12.8502 0 30.0485C0 47.2662 12.9659 60 30.3254 60C44.9706 60 56.7064 50.605 59.3035 36.6483H45.0878C44.167 39.825 42.2255 42.6149 39.5599 44.5917C36.8942 46.5685 33.651 47.6238 30.3254 47.5962C20.5229 47.5962 13.6298 40.1035 13.6298 30.0485C13.6298 19.8965 20.4057 12.4038 30.2278 12.4038H30.2082Z" fill="black"/>
<path d="M199.875 14.1895H188.591C188.591 14.1895 188.591 10.5398 188.591 8.20118C188.591 5.86258 188.591 2.21282 188.591 2.21282H199.875V59.9999V14.1895Z" fill="black"/>
<path d="M156.15 23.0217L166.07 24.4775C177.239 26.1469 184.347 31.5044 184.347 41.7923C184.347 53.2837 174.525 60 159.743 60C143.536 60 134.632 52.0608 133.382 40.7829H146.68C147.363 45.6939 151.874 48.9356 159.88 48.9356C166.422 48.9356 171.147 47.0333 171.147 42.4523C171.147 38.8806 168.452 36.9783 163.59 36.3183L153.67 34.8625C141.154 33.0767 134.964 27.3698 134.964 17.5477C134.964 7.27919 144.434 0 158.747 0C172.612 0 181.633 6.81333 183.098 18.4406H170.015C169.136 13.8596 164.957 11.0838 158.396 11.0838C152.44 11.0838 148.047 13.0831 148.047 17.1013C148.047 20.7894 151.425 22.3423 156.15 23.0217Z" fill="black"/>
<path d="M213.407 14.1895H224.423V2.21282H199.875V59.9999H213.407V14.1895Z" fill="black"/>
<path d="M252.803 23.0217L262.723 24.4775C273.892 26.1469 281 31.5044 281 41.7923C281 53.2837 271.178 60 256.396 60C240.189 60 231.284 52.0608 230.035 40.7829H243.332C244.016 45.6939 248.527 48.9356 256.533 48.9356C263.074 48.9356 267.8 47.0333 267.8 42.4523C267.8 38.8806 265.105 36.9783 260.243 36.3183L250.323 34.8625C237.806 33.0767 231.616 27.3698 231.616 17.5477C231.616 7.27919 241.087 0 255.4 0C269.264 0 278.286 6.81333 279.75 18.4406H266.667C265.788 13.8596 261.61 11.0838 255.049 11.0838C249.093 11.0838 244.699 13.0831 244.699 17.1013C244.699 20.7894 248.077 22.3423 252.803 23.0217Z" fill="black"/>
<rect x="78" y="8" width="36" height="45" fill="white"/>
<path d="M93 39H92.847C92.0919 39 91.3678 38.7001 90.8339 38.1661C90.3 37.6322 90 36.9081 90 36.153C90 35.3574 89.6839 34.5943 89.1213 34.0317C88.5587 33.4691 87.7956 33.153 87 33.153C86.2044 33.153 85.4413 33.4691 84.8787 34.0317C84.3161 34.5943 84 35.3574 84 36.153C84 38.4994 84.9321 40.7496 86.5912 42.4088C88.2504 44.0679 90.5006 45 92.847 45H93V48C93 48.7956 93.3161 49.5587 93.8787 50.1213C94.4413 50.6839 95.2044 51 96 51C96.7956 51 97.5587 50.6839 98.1213 50.1213C98.6839 49.5587 99 48.7956 99 48V45C101.387 45 103.676 44.0518 105.364 42.364C107.052 40.6761 108 38.3869 108 36C108 33.6131 107.052 31.3239 105.364 29.636C103.676 27.9482 101.387 27 99 27V21H99.066C100.686 21 102 22.314 102 23.934C102 24.7297 102.316 25.4927 102.879 26.0553C103.441 26.6179 104.204 26.934 105 26.934C105.796 26.934 106.559 26.6179 107.121 26.0553C107.684 25.4927 108 24.7297 108 23.934C108 21.5646 107.059 19.2922 105.383 17.6167C103.708 15.9413 101.435 15 99.066 15H99V12C99 11.2043 98.6839 10.4413 98.1213 9.87868C97.5587 9.31607 96.7956 9 96 9C95.2044 9 94.4413 9.31607 93.8787 9.87868C93.3161 10.4413 93 11.2043 93 12V15C90.6131 15 88.3239 15.9482 86.636 17.636C84.9482 19.3239 84 21.6131 84 24C84 26.3869 84.9482 28.6761 86.636 30.364C88.3239 32.0518 90.6131 33 93 33V39ZM99 39V33C99.7956 33 100.559 33.3161 101.121 33.8787C101.684 34.4413 102 35.2044 102 36C102 36.7956 101.684 37.5587 101.121 38.1213C100.559 38.6839 99.7956 39 99 39ZM93 21V27C92.2044 27 91.4413 26.6839 90.8787 26.1213C90.3161 25.5587 90 24.7956 90 24C90 23.2044 90.3161 22.4413 90.8787 21.8787C91.4413 21.3161 92.2044 21 93 21V21ZM96 60C79.431 60 66 46.569 66 30C66 13.431 79.431 0 96 0C112.569 0 126 13.431 126 30C126 46.569 112.569 60 96 60Z" fill="#0083B0"/>
</svg>
