<svg width="480" height="480" viewBox="0 0 480 480" fill="none" xmlns="http://www.w3.org/2000/svg">
<path d="M439.999 240C439.999 350.457 350.456 440 239.999 440C129.542 440 39.999 350.457 39.999 240C39.999 129.543 129.542 39.9999 239.999 39.9999C350.456 39.9999 439.999 129.543 439.999 240ZM109.999 240C109.999 311.797 168.202 370 239.999 370C311.796 370 369.999 311.797 369.999 240C369.999 168.203 311.796 110 239.999 110C168.202 110 109.999 168.203 109.999 240Z" fill="url(#paint0_angular_539_15)"/>
<path d="M239.999 40.0002C266.263 40.0002 292.271 45.1734 316.536 55.2243C340.801 65.2753 362.849 80.0072 381.42 98.5789C399.992 117.151 414.724 139.198 424.775 163.464C434.826 187.729 439.999 213.736 439.999 240L369.999 240C369.999 222.928 366.636 206.024 360.103 190.251C353.57 174.479 343.994 160.148 331.923 148.076C319.851 136.005 305.52 126.429 289.748 119.896C273.975 113.363 257.071 110 239.999 110L239.999 40.0002Z" fill="url(#paint1_angular_539_15)"/>
<defs>
<radialGradient id="paint0_angular_539_15" cx="0" cy="0" r="1" gradientUnits="userSpaceOnUse" gradientTransform="translate(239.999 240) scale(200)">
<stop offset="0.9999" stop-color="#0083B0"/>
<stop offset="1" stop-color="#00AFAA" stop-opacity="0.01"/>
</radialGradient>
<radialGradient id="paint1_angular_539_15" cx="0" cy="0" r="1" gradientUnits="userSpaceOnUse" gradientTransform="translate(239.999 240) rotate(-90) scale(200)">
<stop offset="0.9999" stop-color="#0083B0"/>
<stop offset="1" stop-color="#00AFAA" stop-opacity="0.01"/>
</radialGradient>
</defs>
</svg>
